<svg xmlns="http://www.w3.org/2000/svg" width="178" height="41.793" viewBox="0 0 178 41.793">
  <g id="Group_2" data-name="Group 2" transform="translate(-0.031)">
    <g id="Group_7778" data-name="Group 7778">
      <path id="Path_3973" data-name="Path 3973" d="M13.44,2.32q3.194,7.4,5.727,13.247,1.052,2.494,2.085,4.87T23.1,24.684q.973,2.183,1.792,4.13a1.971,1.971,0,0,1,.1.292.937.937,0,0,1,.019.175q0,.467-.662.467H.777q-.74,0-.74-.585a.63.63,0,0,1,.078-.351L11.726,2.32a.83.83,0,0,1,.818-.507h.117a.872.872,0,0,1,.507.1,1.35,1.35,0,0,1,.273.409M4.673,26.476h15.78L12.583,7.93Z" transform="translate(0.205 -0.995)" fill="#fff"/>
      <path id="Path_3974" data-name="Path 3974" d="M79.277,1a.478.478,0,0,1,.234.448V17.774a11.281,11.281,0,0,1-.9,4.5,11.719,11.719,0,0,1-2.435,3.643,11,11,0,0,1-3.643,2.435,11.628,11.628,0,0,1-4.519.877,10.74,10.74,0,0,1-4.4-.915,11.785,11.785,0,0,1-6.1-6.117,10.866,10.866,0,0,1-.916-4.422V1.448a.6.6,0,0,1,.154-.409A.489.489,0,0,1,57.14.864h2.079a.616.616,0,0,1,.424.175.538.538,0,0,1,.192.409V17.267a9.711,9.711,0,0,0,.605,3.467,8.937,8.937,0,0,0,1.68,2.806,7.5,7.5,0,0,0,2.617,1.889,8.355,8.355,0,0,0,3.417.682,8.123,8.123,0,0,0,3.437-.7A7.384,7.384,0,0,0,74.149,23.5a8.463,8.463,0,0,0,1.582-2.825,10.591,10.591,0,0,0,.547-3.409V1.448a.518.518,0,0,1,.194-.429.725.725,0,0,1,.467-.156h1.832A.991.991,0,0,1,79.277,1" transform="translate(-30.841 -0.474)" fill="#fff"/>
      <path id="Path_3975" data-name="Path 3975" d="M128.912,2.492V4.424q0,.75-.7.749h-8.182v24a.632.632,0,0,1-.662.622h-1.948a.551.551,0,0,1-.623-.623V2.484q0-.584.623-.584H128.21a.653.653,0,0,1,.7.592" transform="translate(-63.879 -1.043)" fill="#fff"/>
      <path id="Path_3976" data-name="Path 3976" d="M156.255,0a13.91,13.91,0,0,1,5.579,1.13,14.6,14.6,0,0,1,7.686,7.675,13.864,13.864,0,0,1,1.132,5.572,13.859,13.859,0,0,1-1.132,5.572,14.6,14.6,0,0,1-7.686,7.675,14.433,14.433,0,0,1-11.2,0,14.4,14.4,0,0,1-4.565-3.1,14.786,14.786,0,0,1-3.083-4.578,13.858,13.858,0,0,1-1.131-5.572,13.863,13.863,0,0,1,1.131-5.572,14.808,14.808,0,0,1,3.083-4.578,14.426,14.426,0,0,1,4.565-3.1A14.012,14.012,0,0,1,156.255,0m-.019,25.6a10.706,10.706,0,0,0,4.344-.9,11.527,11.527,0,0,0,3.565-2.416,11.268,11.268,0,0,0,2.4-3.565,11.3,11.3,0,0,0,0-8.728,11.166,11.166,0,0,0-5.961-5.961,11.3,11.3,0,0,0-8.728,0,11.165,11.165,0,0,0-5.962,5.961,11.306,11.306,0,0,0,0,8.728,11.267,11.267,0,0,0,2.4,3.565,11.529,11.529,0,0,0,3.565,2.416,10.8,10.8,0,0,0,4.383.9" transform="translate(-77.636 0)" fill="#fff"/>
      <path id="Path_3977" data-name="Path 3977" d="M224.845,2.368a.843.843,0,0,1,.311-.389,1.081,1.081,0,0,1,.468-.078h1.246a1.079,1.079,0,0,1,.467.078.685.685,0,0,1,.273.389l11.065,26.572a1.254,1.254,0,0,1,.078.351q0,.507-.623.506h-1.987a.829.829,0,0,1-.818-.506q-.233-.506-.779-1.988l-8.3-20.377-8.3,20.377q-.312.742-.487,1.209c-.117.312-.221.564-.312.76a.9.9,0,0,1-.331.409.888.888,0,0,1-.467.117h-1.987q-.663,0-.663-.506a1.211,1.211,0,0,1,.078-.351l5.65-13.52q-.9-2.142-1.754-4.266T216,6.888L207.7,27.3q-.313.742-.487,1.209a6.659,6.659,0,0,1-.331.76,1.116,1.116,0,0,1-.332.409.788.788,0,0,1-.448.117h-1.987q-.663,0-.662-.506a.636.636,0,0,1,.078-.351L214.6,2.33a.736.736,0,0,1,.741-.429h1.246a1.406,1.406,0,0,1,.468.059q.155.058.312.409l3.74,9.039Z" transform="translate(-111.444 -1.043)" fill="#fff"/>
      <path id="Path_3978" data-name="Path 3978" d="M298.31,2.32q3.194,7.4,5.727,13.247,1.052,2.494,2.085,4.87t1.851,4.247q.973,2.183,1.792,4.13a1.97,1.97,0,0,1,.1.292.937.937,0,0,1,.019.175q0,.467-.662.467H285.647q-.74,0-.74-.585a.629.629,0,0,1,.078-.351L296.6,2.32a.83.83,0,0,1,.818-.507h.117a.872.872,0,0,1,.507.1,1.351,1.351,0,0,1,.273.409m-8.767,24.157h15.78L297.453,7.93Z" transform="translate(-156.151 -0.995)" fill="#fff"/>
      <path id="Path_3979" data-name="Path 3979" d="M356.757,15.8q2.3,3.39,3.9,5.727t2.63,3.858q1.032,1.519,1.6,2.357t.838,1.227a3.425,3.425,0,0,1,.351.585c0,.1-.092.156-.273.156h-2.805a1.274,1.274,0,0,1-.974-.623L354.77,18.411l-7.247,10.676a1.257,1.257,0,0,1-.935.623h-2.844q-.273,0-.272-.156a.3.3,0,0,1,.039-.117c.025-.052.13-.208.312-.468s.461-.668.838-1.227.909-1.35,1.6-2.377,1.565-2.318,2.63-3.877,2.377-3.467,3.935-5.728q-2.337-3.39-3.935-5.727t-2.63-3.877l-1.6-2.377q-.565-.838-.838-1.227c-.182-.259-.286-.415-.312-.467a.3.3,0,0,1-.039-.117c0-.1.091-.156.272-.156h2.844a1.112,1.112,0,0,1,.935.623l7.247,10.676,7.247-10.676a1.275,1.275,0,0,1,.974-.623H365.8c.181,0,.273.052.273.156a.313.313,0,0,1-.039.117q-.039.078-.312.467T364.881,3.8q-.565.857-1.6,2.377t-2.63,3.877l-3.9,5.747" transform="translate(-188.294 -0.995)" fill="#fff"/>
      <text id="TOTAL_OPERATION_MANAGEMENT" data-name="TOTAL OPERATION MANAGEMENT" transform="translate(0.031 39.793)" fill="#fff" font-size="8.1" font-family="ProximaNova-Light, Proxima Nova" font-weight="300" letter-spacing="0.26em"><tspan x="0" y="0">TOTAL OPERATION MANAGEMENT</tspan></text>
    </g>
  </g>
</svg>
